ffmpeg started on 2016-12-09 at 07:14:04
Report written to "Output/x264/results/ffmpeg/crowd_run_2160p50placebo2000k.log"
Command line:
Tools/ffmpeg/ffmpeg -benchmark -y -i Input/y4m/crowd_run_2160p50.y4m -c:v libx264 -preset placebo -b:v 2000k -an Output/x264/encoded/crowd_run_2160p50placebo2000k.mkv
ffmpeg version N-82227-gdb23fde Copyright (c) 2000-2016 the FFmpeg developers
  built with gcc 5.4.0 (Ubuntu 5.4.0-6ubuntu1~16.04.2) 20160609
  configuration: --prefix=/home/jaroslav/ffmpeg_build --pkg-config-flags=--static --extra-cflags=-I/home/jaroslav/ffmpeg_build/include --extra-ldflags=-L/home/jaroslav/ffmpeg_build/lib --bindir=/home/jaroslav/bin --enable-gpl --enable-libass --enable-libfdk-aac --enable-libfreetype --enable-libmp3lame --enable-libopus --enable-libtheora --enable-libvorbis --enable-libvpx --enable-libx264 --enable-libx265 --enable-nvenc --enable-libmfx --enable-libxvid --enable-libgsm --enable-libopencore-amrnb --enable-version3 --enable-nonfree
  libavutil      55. 35.100 / 55. 35.100
  libavcodec     57. 66.101 / 57. 66.101
  libavformat    57. 57.100 / 57. 57.100
  libavdevice    57.  2.100 / 57.  2.100
  libavfilter     6. 66.100 /  6. 66.100
  libswscale      4.  3.100 /  4.  3.100
  libswresample   2.  4.100 /  2.  4.100
  libpostproc    54.  2.100 / 54.  2.100
Input #0, yuv4mpegpipe, from 'Input/y4m/crowd_run_2160p50.y4m':
  Duration: 00:00:10.00, start: 0.000000, bitrate: 4976642 kb/s
    Stream #0:0: Video: rawvideo (I420 / 0x30323449), yuv420p(progressive), 3840x2160, SAR 1:1 DAR 16:9, 50 fps, 50 tbr, 50 tbn, 50 tbc
[libx264 @ 0x417d1c0] using SAR=1/1
[libx264 @ 0x417d1c0] DPB size (16 frames, 518400 mbs) > level limit (5 frames, 184320 mbs)
[libx264 @ 0x417d1c0] using cpu capabilities: MMX2 SSE2Fast SSSE3 SSE4.2 AVX FMA3 AVX2 LZCNT BMI2
[libx264 @ 0x417d1c0] profile High, level 5.2
[libx264 @ 0x417d1c0] 264 - core 148 - H.264/MPEG-4 AVC codec - Copyleft 2003-2016 - http://www.videolan.org/x264.html - options: cabac=1 ref=16 deblock=1:0:0 analyse=0x3:0x133 me=tesa subme=11 psy=1 psy_rd=1.00:0.00 mixed_ref=1 me_range=24 chroma_me=1 trellis=2 8x8dct=1 cqm=0 deadzone=21,11 fast_pskip=0 chroma_qp_offset=-2 threads=6 lookahead_threads=1 sliced_threads=0 nr=0 decimate=1 interlaced=0 bluray_compat=0 constrained_intra=0 bframes=16 b_pyramid=2 b_adapt=2 b_bias=0 direct=3 weightb=1 open_gop=0 weightp=2 keyint=250 keyint_min=25 scenecut=40 intra_refresh=0 rc_lookahead=60 rc=abr mbtree=1 bitrate=2000 ratetol=1.0 qcomp=0.60 qpmin=0 qpmax=69 qpstep=4 ip_ratio=1.40 aq=1:1.00
Output #0, matroska, to 'Output/x264/encoded/crowd_run_2160p50placebo2000k.mkv':
  Metadata:
    encoder         : Lavf57.57.100
    Stream #0:0: Video: h264 (libx264) (H264 / 0x34363248), yuv420p, 3840x2160 [SAR 1:1 DAR 16:9], q=-1--1, 2000 kb/s, 50 fps, 1k tbn, 50 tbc
    Metadata:
      encoder         : Lavc57.66.101 libx264
    Side data:
      cpb: bitrate max/min/avg: 0/0/2000000 buffer size: 0 vbv_delay: -1
Stream mapping:
  Stream #0:0 -> #0:0 (rawvideo (native) -> h264 (libx264))
Press [q] to stop, [?] for help
frame=   19 fps=0.0 q=0.0 size=       0kB time=00:00:00.00 bitrate=N/A speed=   0x    frame=   27 fps= 26 q=0.0 size=       0kB time=00:00:00.00 bitrate=N/A speed=   0x    frame=   34 fps= 21 q=0.0 size=       0kB time=00:00:00.00 bitrate=N/A speed=   0x    frame=   41 fps= 19 q=0.0 size=       0kB time=00:00:00.00 bitrate=N/A speed=   0x    frame=   48 fps= 18 q=0.0 size=       0kB time=00:00:00.00 bitrate=N/A speed=   0x    frame=   55 fps= 17 q=0.0 size=       0kB time=00:00:00.00 bitrate=N/A speed=   0x    frame=   62 fps= 16 q=0.0 size=       0kB time=00:00:00.00 bitrate=N/A speed=   0x    frame=   67 fps= 15 q=0.0 size=       0kB time=00:00:00.00 bitrate=N/A speed=   0x    frame=   74 fps= 15 q=0.0 size=       0kB time=00:00:00.00 bitrate=N/A speed=   0x    frame=   81 fps= 14 q=0.0 size=       0kB time=00:00:00.00 bitrate=N/A speed=   0x    frame=   84 fps=3.2 q=0.0 size=       0kB time=00:00:00.00 bitrate=N/A speed=   0x    frame=   89 fps=3.3 q=56.0 size=       1kB time=-00:00:00.01 bitrate=N/A speed=N/A    frame=   90 fps=2.8 q=51.0 size=       1kB time=00:00:00.00 bitrate=5888.0kbits/s speed=3.08e-05x    frame=   95 fps=2.5 q=59.0 size=       1kB time=00:00:00.10 bitrate=  58.3kbits/s speed=0.00265x    frame=  100 fps=2.3 q=64.0 size=       1kB time=00:00:00.20 bitrate=  29.3kbits/s speed=0.00464x    frame=  105 fps=2.2 q=66.0 size=       1kB time=00:00:00.30 bitrate=  19.6kbits/s speed=0.00632x    frame=  106 fps=2.1 q=65.0 size=       1kB time=00:00:00.32 bitrate=  18.3kbits/s speed=0.0065x    frame=  110 fps=2.1 q=65.0 size=       1kB time=00:00:00.40 bitrate=  14.7kbits/s speed=0.00749x    frame=  112 fps=2.1 q=65.0 size=       1kB time=00:00:00.44 bitrate=  13.4kbits/s speed=0.00813x    frame=  114 fps=2.0 q=64.0 size=       1kB time=00:00:00.48 bitrate=  12.2kbits/s speed=0.00836x    frame=  115 fps=1.9 q=64.0 size=       1kB time=00:00:00.50 bitrate=  11.8kbits/s speed=0.00834x    frame=  117 fps=1.9 q=65.0 size=       1kB time=00:00:00.54 bitrate=  10.9kbits/s speed=0.00883x    frame=  119 fps=1.8 q=65.0 size=       1kB time=00:00:00.58 bitrate=  10.1kbits/s speed=0.0087x    frame=  120 fps=1.8 q=65.0 size=       1kB time=00:00:00.60 bitrate=   9.8kbits/s speed=0.00888x    frame=  121 fps=1.8 q=65.0 size=       1kB time=00:00:00.62 bitrate=   9.5kbits/s speed=0.00908x    frame=  123 fps=1.7 q=65.0 size=       1kB time=00:00:00.66 bitrate=   8.9kbits/s speed=0.00921x    frame=  124 fps=1.7 q=65.0 size=       1kB time=00:00:00.68 bitrate=   8.6kbits/s speed=0.00936x    frame=  125 fps=1.7 q=65.0 size=       1kB time=00:00:00.70 bitrate=   8.4kbits/s speed=0.00953x    frame=  126 fps=1.7 q=64.0 size=       1kB time=00:00:00.72 bitrate=   8.2kbits/s speed=0.0097x    frame=  127 fps=1.6 q=64.0 size=       1kB time=00:00:00.74 bitrate=   7.9kbits/s speed=0.00926x    frame=  128 fps=1.6 q=64.0 size=       1kB time=00:00:00.76 bitrate=   7.7kbits/s speed=0.00941x    frame=  129 fps=1.6 q=64.0 size=       1kB time=00:00:00.78 bitrate=   7.5kbits/s speed=0.00957x    frame=  132 fps=1.5 q=64.0 size=       1kB time=00:00:00.84 bitrate=   7.0kbits/s speed=0.00971x    frame=  133 fps=1.5 q=64.0 size=       1kB time=00:00:00.86 bitrate=   6.8kbits/s speed=0.00968x    frame=  134 fps=1.5 q=64.0 size=       1kB time=00:00:00.88 bitrate=   6.7kbits/s speed=0.00981x    frame=  137 fps=1.4 q=64.0 size=       1kB time=00:00:00.94 bitrate=   6.3kbits/s speed=0.00987x    frame=  138 fps=1.4 q=64.0 size=       1kB time=00:00:00.96 bitrate=   6.1kbits/s speed=0.00999x    frame=  139 fps=1.4 q=64.0 size=       1kB time=00:00:00.98 bitrate=   6.0kbits/s speed=0.0101x    frame=  140 fps=1.4 q=64.0 size=       1kB time=00:00:01.00 bitrate=   5.9kbits/s speed=0.0102x    frame=  142 fps=1.4 q=64.0 size=       1kB time=00:00:01.04 bitrate=   5.7kbits/s speed=0.0101x    frame=  143 fps=1.4 q=64.0 size=       1kB time=00:00:01.06 bitrate=   5.5kbits/s speed=0.0102x    frame=  144 fps=1.4 q=64.0 size=       1kB time=00:00:01.08 bitrate=   5.4kbits/s speed=0.0103x    frame=  147 fps=1.3 q=63.0 size=       1kB time=00:00:01.14 bitrate=   5.2kbits/s speed=0.0104x    frame=  148 fps=1.3 q=63.0 size=       1kB time=00:00:01.16 bitrate=   5.1kbits/s speed=0.0104x    frame=  149 fps=1.3 q=63.0 size=       1kB time=00:00:01.18 bitrate=   5.0kbits/s speed=0.0105x    frame=  151 fps=1.3 q=63.0 size=       1kB time=00:00:01.22 bitrate=   4.8kbits/s speed=0.0106x    frame=  152 fps=1.3 q=63.0 size=       1kB time=00:00:01.24 bitrate=   4.7kbits/s speed=0.0107x    frame=  153 fps=1.3 q=63.0 size=       1kB time=00:00:01.26 bitrate=   4.7kbits/s speed=0.0107x    frame=  154 fps=1.3 q=63.0 size=       1kB time=00:00:01.28 bitrate=   4.6kbits/s speed=0.0108x    frame=  155 fps=1.3 q=63.0 size=       1kB time=00:00:01.30 bitrate=   4.5kbits/s speed=0.0109x    frame=  156 fps=1.3 q=63.0 size=       1kB time=00:00:01.32 bitrate=   4.5kbits/s speed=0.0107x    frame=  157 fps=1.3 q=63.0 size=       1kB time=00:00:01.34 bitrate=   4.4kbits/s speed=0.0108x    frame=  158 fps=1.3 q=63.0 size=       1kB time=00:00:01.36 bitrate=   4.3kbits/s speed=0.0108x    frame=  160 fps=1.2 q=63.0 size=       1kB time=00:00:01.40 bitrate=   4.2kbits/s speed=0.0108x    frame=  161 fps=1.2 q=63.0 size=       1kB time=00:00:01.42 bitrate=   4.1kbits/s speed=0.0109x    frame=  162 fps=1.2 q=63.0 size=       1kB time=00:00:01.44 bitrate=   4.1kbits/s speed=0.0109x    frame=  163 fps=1.2 q=63.0 size=       1kB time=00:00:01.46 bitrate=   4.0kbits/s speed=0.0109x    frame=  165 fps=1.2 q=63.0 size=       1kB time=00:00:01.50 bitrate=   3.9kbits/s speed=0.0109x    frame=  166 fps=1.2 q=63.0 size=       1kB time=00:00:01.52 bitrate=   3.9kbits/s speed=0.0109x    frame=  167 fps=1.2 q=63.0 size=       1kB time=00:00:01.54 bitrate=   3.8kbits/s speed=0.011x    frame=  169 fps=1.2 q=63.0 size=       1kB time=00:00:01.58 bitrate=   3.7kbits/s speed=0.011x    frame=  170 fps=1.2 q=63.0 size=       1kB time=00:00:01.60 bitrate=   3.7kbits/s speed=0.011x    frame=  171 fps=1.2 q=63.0 size=       1kB time=00:00:01.62 bitrate=   3.6kbits/s speed=0.0111x    frame=  173 fps=1.2 q=63.0 size=       1kB time=00:00:01.66 bitrate=   3.5kbits/s speed=0.0113x    frame=  174 fps=1.2 q=63.0 size=       1kB time=00:00:01.68 bitrate=   3.5kbits/s speed=0.0111x    frame=  175 fps=1.1 q=63.0 size=       1kB time=00:00:01.70 bitrate=   3.5kbits/s speed=0.0111x    frame=  176 fps=1.1 q=63.0 size=       1kB time=00:00:01.72 bitrate=   3.4kbits/s speed=0.0111x    frame=  179 fps=1.1 q=63.0 size=       1kB time=00:00:01.78 bitrate=   3.3kbits/s speed=0.0112x    frame=  180 fps=1.1 q=62.0 size=       1kB time=00:00:01.80 bitrate=   3.3kbits/s speed=0.0113x    frame=  181 fps=1.1 q=62.0 size=       1kB time=00:00:01.82 bitrate=   3.2kbits/s speed=0.0113x    frame=  182 fps=1.1 q=62.0 size=       1kB time=00:00:01.84 bitrate=   3.2kbits/s speed=0.0113x    frame=  183 fps=1.1 q=62.0 size=       1kB time=00:00:01.86 bitrate=   3.2kbits/s speed=0.0111x    frame=  184 fps=1.1 q=62.0 size=       1kB time=00:00:01.88 bitrate=   3.1kbits/s speed=0.0112x    frame=  185 fps=1.1 q=62.0 size=       1kB time=00:00:01.90 bitrate=   3.1kbits/s speed=0.0113x    frame=  187 fps=1.1 q=62.0 size=       1kB time=00:00:01.94 bitrate=   3.0kbits/s speed=0.0112x    frame=  188 fps=1.1 q=62.0 size=       1kB time=00:00:01.96 bitrate=   3.0kbits/s speed=0.0113x    frame=  189 fps=1.1 q=62.0 size=       1kB time=00:00:01.98 bitrate=   3.0kbits/s speed=0.0113x    frame=  191 fps=1.1 q=62.0 size=       1kB time=00:00:02.02 bitrate=   2.9kbits/s speed=0.0114x    frame=  193 fps=1.1 q=62.0 size=       1kB time=00:00:02.06 bitrate=   2.9kbits/s speed=0.0112x    frame=  194 fps=1.1 q=62.0 size=       1kB time=00:00:02.08 bitrate=   2.8kbits/s speed=0.0113x    frame=  195 fps=1.1 q=62.0 size=       1kB time=00:00:02.10 bitrate=   2.8kbits/s speed=0.0113x    frame=  198 fps=1.0 q=62.0 size=       1kB time=00:00:02.16 bitrate=   2.7kbits/s speed=0.0114x    frame=  199 fps=1.0 q=62.0 size=       1kB time=00:00:02.18 bitrate=   2.7kbits/s speed=0.0113x    frame=  200 fps=1.0 q=62.0 size=       1kB time=00:00:02.20 bitrate=   2.7kbits/s speed=0.0114x    frame=  204 fps=1.0 q=62.0 size=       1kB time=00:00:02.28 bitrate=   2.6kbits/s speed=0.0115x    frame=  205 fps=1.0 q=62.0 size=       1kB time=00:00:02.30 bitrate=   2.6kbits/s speed=0.0114x    frame=  206 fps=1.0 q=62.0 size=       1kB time=00:00:02.32 bitrate=   2.5kbits/s speed=0.0115x    frame=  208 fps=1.0 q=62.0 size=       1kB time=00:00:02.36 bitrate=   2.5kbits/s speed=0.0115x    frame=  209 fps=1.0 q=62.0 size=       1kB time=00:00:02.38 bitrate=   2.5kbits/s speed=0.0115x    frame=  210 fps=1.0 q=62.0 size=       1kB time=00:00:02.40 bitrate=   2.5kbits/s speed=0.0116x    frame=  211 fps=1.0 q=62.0 size=       1kB time=00:00:02.42 bitrate=   2.4kbits/s speed=0.0116x    frame=  212 fps=1.0 q=62.0 size=       1kB time=00:00:02.44 bitrate=   2.4kbits/s speed=0.0116x    frame=  214 fps=1.0 q=62.0 size=       1kB time=00:00:02.48 bitrate=   2.4kbits/s speed=0.0115x    frame=  215 fps=1.0 q=62.0 size=       1kB time=00:00:02.50 bitrate=   2.4kbits/s speed=0.0115x    frame=  216 fps=1.0 q=62.0 size=       1kB time=00:00:02.52 bitrate=   2.3kbits/s speed=0.0116x    frame=  217 fps=1.0 q=62.0 size=       1kB time=00:00:02.54 bitrate=   2.3kbits/s speed=0.0117x    frame=  219 fps=1.0 q=62.0 size=       1kB time=00:00:02.58 bitrate=   2.3kbits/s speed=0.0116x    frame=  220 fps=1.0 q=61.0 size=       1kB time=00:00:02.60 bitrate=   2.3kbits/s speed=0.0115x    frame=  222 fps=1.0 q=62.0 size=       1kB time=00:00:02.64 bitrate=   2.2kbits/s speed=0.0117x    frame=  225 fps=1.0 q=62.0 size=       1kB time=00:00:02.70 bitrate=   2.2kbits/s speed=0.0116x    frame=  226 fps=1.0 q=61.0 size=       1kB time=00:00:02.72 bitrate=   2.2kbits/s speed=0.0117x    frame=  227 fps=1.0 q=61.0 size=       1kB time=00:00:02.74 bitrate=   2.1kbits/s speed=0.0117x    frame=  229 fps=1.0 q=61.0 size=       1kB time=00:00:02.78 bitrate=   2.1kbits/s speed=0.0116x    frame=  230 fps=1.0 q=61.0 size=       1kB time=00:00:02.80 bitrate=   2.1kbits/s speed=0.0117x    frame=  231 fps=1.0 q=61.0 size=       1kB time=00:00:02.82 bitrate=   2.1kbits/s speed=0.0117x    frame=  232 fps=1.0 q=61.0 size=       1kB time=00:00:02.84 bitrate=   2.1kbits/s speed=0.0117x    frame=  234 fps=0.9 q=61.0 size=       1kB time=00:00:02.88 bitrate=   2.0kbits/s speed=0.0117x    frame=  235 fps=0.9 q=61.0 size=       1kB time=00:00:02.90 bitrate=   2.0kbits/s speed=0.0117x    frame=  236 fps=0.9 q=61.0 size=       1kB time=00:00:02.92 bitrate=   2.0kbits/s speed=0.0117x    frame=  238 fps=0.9 q=61.0 size=       1kB time=00:00:02.96 bitrate=   2.0kbits/s speed=0.0117x    frame=  239 fps=0.9 q=61.0 size=       1kB time=00:00:02.98 bitrate=   2.0kbits/s speed=0.0117x    frame=  240 fps=0.9 q=61.0 size=       1kB time=00:00:03.00 bitrate=   2.0kbits/s speed=0.0117x    frame=  241 fps=0.9 q=61.0 size=       1kB time=00:00:03.02 bitrate=   1.9kbits/s speed=0.0118x    frame=  242 fps=0.9 q=61.0 size=       1kB time=00:00:03.04 bitrate=   1.9kbits/s speed=0.0118x    frame=  244 fps=0.9 q=61.0 size=       1kB time=00:00:03.08 bitrate=   1.9kbits/s speed=0.0116x    frame=  245 fps=0.9 q=61.0 size=       1kB time=00:00:03.10 bitrate=   1.9kbits/s speed=0.0116x    frame=  246 fps=0.9 q=61.0 size=       1kB time=00:00:03.12 bitrate=   1.9kbits/s speed=0.0117x    frame=  250 fps=0.9 q=61.0 size=       1kB time=00:00:03.20 bitrate=   1.8kbits/s speed=0.0116x    frame=  251 fps=0.9 q=61.0 size=       1kB time=00:00:03.22 bitrate=   1.8kbits/s speed=0.0117x    frame=  252 fps=0.9 q=61.0 size=       1kB time=00:00:03.24 bitrate=   1.8kbits/s speed=0.0117x    frame=  255 fps=0.9 q=61.0 size=       1kB time=00:00:03.30 bitrate=   1.8kbits/s speed=0.0118x    frame=  256 fps=0.9 q=61.0 size=       1kB time=00:00:03.32 bitrate=   1.8kbits/s speed=0.0117x    frame=  257 fps=0.9 q=61.0 size=       1kB time=00:00:03.34 bitrate=   1.8kbits/s speed=0.0117x    frame=  261 fps=0.9 q=61.0 size=       1kB time=00:00:03.42 bitrate=   1.7kbits/s speed=0.0118x    frame=  262 fps=0.9 q=61.0 size=       1kB time=00:00:03.44 bitrate=   1.7kbits/s speed=0.0117x    frame=  263 fps=0.9 q=61.0 size=       1kB time=00:00:03.46 bitrate=   1.7kbits/s speed=0.0118x    frame=  266 fps=0.9 q=61.0 size=       1kB time=00:00:03.52 bitrate=   1.7kbits/s speed=0.0118x    frame=  267 fps=0.9 q=61.0 size=       1kB time=00:00:03.54 bitrate=   1.7kbits/s speed=0.0118x    frame=  268 fps=0.9 q=61.0 size=       1kB time=00:00:03.56 bitrate=   1.7kbits/s speed=0.0117x    frame=  269 fps=0.9 q=61.0 size=       1kB time=00:00:03.58 bitrate=   1.6kbits/s speed=0.0118x    frame=  271 fps=0.9 q=61.0 size=       1kB time=00:00:03.62 bitrate=   1.6kbits/s speed=0.0118x    frame=  272 fps=0.9 q=61.0 size=       1kB time=00:00:03.64 bitrate=   1.6kbits/s speed=0.0118x    frame=  273 fps=0.9 q=61.0 size=       1kB time=00:00:03.66 bitrate=   1.6kbits/s speed=0.0118x    frame=  274 fps=0.9 q=61.0 size=       1kB time=00:00:03.68 bitrate=   1.6kbits/s speed=0.0118x    frame=  275 fps=0.9 q=61.0 size=       1kB time=00:00:03.70 bitrate=   1.6kbits/s speed=0.0118x    frame=  276 fps=0.9 q=61.0 size=       1kB time=00:00:03.72 bitrate=   1.6kbits/s speed=0.0118x    frame=  277 fps=0.9 q=61.0 size=       1kB time=00:00:03.74 bitrate=   1.6kbits/s speed=0.0118x    frame=  278 fps=0.9 q=61.0 size=       1kB time=00:00:03.76 bitrate=   1.6kbits/s speed=0.0118x    frame=  280 fps=0.9 q=61.0 size=       1kB time=00:00:03.80 bitrate=   1.5kbits/s speed=0.0118x    frame=  281 fps=0.9 q=61.0 size=       1kB time=00:00:03.82 bitrate=   1.5kbits/s speed=0.0118x    frame=  282 fps=0.9 q=61.0 size=       1kB time=00:00:03.84 bitrate=   1.5kbits/s speed=0.0118x    frame=  283 fps=0.9 q=61.0 size=       1kB time=00:00:03.86 bitrate=   1.5kbits/s speed=0.0118x    frame=  284 fps=0.9 q=61.0 size=       1kB time=00:00:03.88 bitrate=   1.5kbits/s speed=0.0119x    frame=  285 fps=0.9 q=61.0 size=       1kB time=00:00:03.90 bitrate=   1.5kbits/s speed=0.0118x    frame=  286 fps=0.9 q=61.0 size=       1kB time=00:00:03.92 bitrate=   1.5kbits/s speed=0.0118x    frame=  287 fps=0.9 q=61.0 size=       1kB time=00:00:03.94 bitrate=   1.5kbits/s speed=0.0118x    frame=  288 fps=0.9 q=61.0 size=       1kB time=00:00:03.96 bitrate=   1.5kbits/s speed=0.0118x    frame=  289 fps=0.9 q=61.0 size=       1kB time=00:00:03.98 bitrate=   1.5kbits/s speed=0.0118x    frame=  290 fps=0.9 q=61.0 size=       1kB time=00:00:04.00 bitrate=   1.5kbits/s speed=0.0118x    frame=  291 fps=0.9 q=61.0 size=       1kB time=00:00:04.02 bitrate=   1.5kbits/s speed=0.0118x    frame=  292 fps=0.9 q=61.0 size=       1kB time=00:00:04.04 bitrate=   1.5kbits/s speed=0.0118x    frame=  293 fps=0.9 q=61.0 size=       1kB time=00:00:04.06 bitrate=   1.4kbits/s speed=0.0119x    frame=  294 fps=0.8 q=61.0 size=       1kB time=00:00:04.08 bitrate=   1.4kbits/s speed=0.0118x    frame=  295 fps=0.8 q=61.0 size=       1kB time=00:00:04.10 bitrate=   1.4kbits/s speed=0.0118x    frame=  296 fps=0.8 q=61.0 size=       1kB time=00:00:04.12 bitrate=   1.4kbits/s speed=0.0118x    frame=  298 fps=0.8 q=61.0 size=       1kB time=00:00:04.16 bitrate=   1.4kbits/s speed=0.0118x    frame=  299 fps=0.8 q=61.0 size=       1kB time=00:00:04.18 bitrate=   1.4kbits/s speed=0.0118x    frame=  300 fps=0.8 q=61.0 size=       1kB time=00:00:04.20 bitrate=   1.4kbits/s speed=0.0118x    frame=  301 fps=0.8 q=61.0 size=       1kB time=00:00:04.22 bitrate=   1.4kbits/s speed=0.0118x    frame=  302 fps=0.8 q=61.0 size=       1kB time=00:00:04.24 bitrate=   1.4kbits/s speed=0.0118x    frame=  304 fps=0.8 q=61.0 size=       1kB time=00:00:04.28 bitrate=   1.4kbits/s speed=0.0118x    frame=  305 fps=0.8 q=61.0 size=       1kB time=00:00:04.30 bitrate=   1.4kbits/s speed=0.0118x    frame=  306 fps=0.8 q=61.0 size=       1kB time=00:00:04.32 bitrate=   1.4kbits/s speed=0.0118x    frame=  308 fps=0.8 q=61.0 size=       1kB time=00:00:04.36 bitrate=   1.4kbits/s speed=0.0117x    frame=  309 fps=0.8 q=61.0 size=       1kB time=00:00:04.38 bitrate=   1.3kbits/s speed=0.0118x    frame=  310 fps=0.8 q=61.0 size=       1kB time=00:00:04.40 bitrate=   1.3kbits/s speed=0.0118x    frame=  312 fps=0.8 q=61.0 size=       1kB time=00:00:04.44 bitrate=   1.3kbits/s speed=0.0119x    frame=  313 fps=0.8 q=61.0 size=       1kB time=00:00:04.46 bitrate=   1.3kbits/s speed=0.0118x    frame=  314 fps=0.8 q=61.0 size=       1kB time=00:00:04.48 bitrate=   1.3kbits/s speed=0.0117x    frame=  315 fps=0.8 q=61.0 size=       1kB time=00:00:04.50 bitrate=   1.3kbits/s speed=0.0118x    frame=  318 fps=0.8 q=61.0 size=       1kB time=00:00:04.56 bitrate=   1.3kbits/s speed=0.0118x    frame=  319 fps=0.8 q=61.0 size=       1kB time=00:00:04.58 bitrate=   1.3kbits/s speed=0.0118x    frame=  320 fps=0.8 q=61.0 size=       1kB time=00:00:04.60 bitrate=   1.3kbits/s speed=0.0118x    frame=  321 fps=0.8 q=61.0 size=       1kB time=00:00:04.62 bitrate=   1.3kbits/s speed=0.0118x    frame=  323 fps=0.8 q=61.0 size=       1kB time=00:00:04.66 bitrate=   1.3kbits/s speed=0.0118x    frame=  324 fps=0.8 q=61.0 size=       1kB time=00:00:04.68 bitrate=   1.3kbits/s speed=0.0118x    frame=  325 fps=0.8 q=61.0 size=       1kB time=00:00:04.70 bitrate=   1.3kbits/s speed=0.0118x    frame=  326 fps=0.8 q=61.0 size=       1kB time=00:00:04.72 bitrate=   1.2kbits/s speed=0.0118x    frame=  327 fps=0.8 q=61.0 size=       1kB time=00:00:04.74 bitrate=   1.2kbits/s speed=0.0118x    frame=  328 fps=0.8 q=61.0 size=       1kB time=00:00:04.76 bitrate=   1.2kbits/s speed=0.0117x    frame=  329 fps=0.8 q=61.0 size=       1kB time=00:00:04.78 bitrate=   1.2kbits/s speed=0.0118x    frame=  330 fps=0.8 q=61.0 size=       1kB time=00:00:04.80 bitrate=   1.2kbits/s speed=0.0118x    frame=  332 fps=0.8 q=61.0 size=       1kB time=00:00:04.84 bitrate=   1.2kbits/s speed=0.0118x    frame=  333 fps=0.8 q=58.0 size=       1kB time=00:00:04.86 bitrate=   1.2kbits/s speed=0.0118x    frame=  334 fps=0.8 q=61.0 size=       1kB time=00:00:04.88 bitrate=   1.2kbits/s speed=0.0118x    frame=  336 fps=0.8 q=61.0 size=       1kB time=00:00:04.92 bitrate=   1.2kbits/s speed=0.0118x    frame=  338 fps=0.8 q=61.0 size=    1253kB time=00:00:04.96 bitrate=2069.4kbits/s speed=0.0119x    frame=  341 fps=0.8 q=61.0 size=    1253kB time=00:00:05.02 bitrate=2044.7kbits/s speed=0.012x    frame=  344 fps=0.8 q=61.0 size=    1253kB time=00:00:05.08 bitrate=2020.6kbits/s speed=0.0121x    frame=  346 fps=0.8 q=61.0 size=    1253kB time=00:00:05.12 bitrate=2004.8kbits/s speed=0.0121x    frame=  349 fps=0.8 q=61.0 size=    1253kB time=00:00:05.18 bitrate=1981.6kbits/s speed=0.0122x    frame=  350 fps=0.8 q=61.0 size=    1253kB time=00:00:05.20 bitrate=1973.9kbits/s speed=0.0122x    frame=  352 fps=0.8 q=61.0 size=    1253kB time=00:00:05.24 bitrate=1958.9kbits/s speed=0.0122x    frame=  354 fps=0.8 q=61.0 size=    1253kB time=00:00:05.28 bitrate=1944.0kbits/s speed=0.0123x    frame=  355 fps=0.8 q=61.0 size=    1253kB time=00:00:05.30 bitrate=1936.7kbits/s speed=0.0123x    frame=  356 fps=0.8 q=61.0 size=    1253kB time=00:00:05.32 bitrate=1929.4kbits/s speed=0.0123x    frame=  358 fps=0.8 q=61.0 size=    1253kB time=00:00:05.36 bitrate=1915.0kbits/s speed=0.0123x    frame=  359 fps=0.8 q=61.0 size=    1253kB time=00:00:05.38 bitrate=1907.9kbits/s speed=0.0123x    frame=  360 fps=0.8 q=61.0 size=    1253kB time=00:00:05.40 bitrate=1900.8kbits/s speed=0.0123x    frame=  362 fps=0.8 q=61.0 size=    1253kB time=00:00:05.44 bitrate=1886.9kbits/s speed=0.0124x    frame=  363 fps=0.8 q=61.0 size=    1253kB time=00:00:05.46 bitrate=1880.0kbits/s speed=0.0123x    frame=  364 fps=0.8 q=61.0 size=    1253kB time=00:00:05.48 bitrate=1873.1kbits/s speed=0.0123x    frame=  365 fps=0.8 q=61.0 size=    1253kB time=00:00:05.50 bitrate=1866.3kbits/s speed=0.0123x    frame=  368 fps=0.8 q=61.0 size=    1253kB time=00:00:05.56 bitrate=1846.2kbits/s speed=0.0123x    frame=  369 fps=0.8 q=61.0 size=    1253kB time=00:00:05.58 bitrate=1839.5kbits/s speed=0.0123x    frame=  370 fps=0.8 q=61.0 size=    1253kB time=00:00:05.60 bitrate=1833.0kbits/s speed=0.0123x    frame=  371 fps=0.8 q=61.0 size=    1253kB time=00:00:05.62 bitrate=1826.4kbits/s speed=0.0123x    frame=  373 fps=0.8 q=61.0 size=    1253kB time=00:00:05.66 bitrate=1813.5kbits/s speed=0.0123x    frame=  374 fps=0.8 q=61.0 size=    1253kB time=00:00:05.68 bitrate=1807.2kbits/s speed=0.0123x    frame=  375 fps=0.8 q=61.0 size=    1253kB time=00:00:05.70 bitrate=1800.8kbits/s speed=0.0123x    frame=  377 fps=0.8 q=61.0 size=    1253kB time=00:00:05.74 bitrate=1788.3kbits/s speed=0.0123x    frame=  378 fps=0.8 q=61.0 size=    1253kB time=00:00:05.76 bitrate=1782.1kbits/s speed=0.0123x    frame=  379 fps=0.8 q=61.0 size=    1253kB time=00:00:05.78 bitrate=1775.9kbits/s speed=0.0123x    frame=  380 fps=0.8 q=61.0 size=    1253kB time=00:00:05.80 bitrate=1769.8kbits/s speed=0.0123x    frame=  382 fps=0.8 q=61.0 size=    1253kB time=00:00:05.84 bitrate=1757.7kbits/s speed=0.0123x    frame=  383 fps=0.8 q=61.0 size=    1253kB time=00:00:05.86 bitrate=1751.7kbits/s speed=0.0123x    frame=  384 fps=0.8 q=61.0 size=    1253kB time=00:00:05.88 bitrate=1745.7kbits/s speed=0.0123x    frame=  385 fps=0.8 q=61.0 size=    1253kB time=00:00:05.90 bitrate=1739.8kbits/s speed=0.0123x    frame=  386 fps=0.8 q=61.0 size=    1253kB time=00:00:05.92 bitrate=1733.9kbits/s speed=0.0123x    frame=  387 fps=0.8 q=61.0 size=    1253kB time=00:00:05.94 bitrate=1728.1kbits/s speed=0.0123x    frame=  388 fps=0.8 q=61.0 size=    1253kB time=00:00:05.96 bitrate=1722.3kbits/s speed=0.0123x    frame=  389 fps=0.8 q=61.0 size=    1253kB time=00:00:05.98 bitrate=1716.5kbits/s speed=0.0123x    frame=  391 fps=0.8 q=61.0 size=    1253kB time=00:00:06.02 bitrate=1705.1kbits/s speed=0.0123x    frame=  392 fps=0.8 q=61.0 size=    1253kB time=00:00:06.04 bitrate=1699.5kbits/s speed=0.0123x    frame=  393 fps=0.8 q=61.0 size=    1253kB time=00:00:06.06 bitrate=1693.9kbits/s speed=0.0123x    frame=  394 fps=0.8 q=61.0 size=    1253kB time=00:00:06.08 bitrate=1688.3kbits/s speed=0.0123x    frame=  395 fps=0.8 q=61.0 size=    1253kB time=00:00:06.10 bitrate=1682.8kbits/s speed=0.0123x    frame=  396 fps=0.8 q=61.0 size=    1253kB time=00:00:06.12 bitrate=1677.3kbits/s speed=0.0123x    frame=  397 fps=0.8 q=61.0 size=    1253kB time=00:00:06.14 bitrate=1671.8kbits/s speed=0.0122x    frame=  398 fps=0.8 q=61.0 size=    1253kB time=00:00:06.16 bitrate=1666.4kbits/s speed=0.0123x    frame=  401 fps=0.8 q=61.0 size=    1253kB time=00:00:06.22 bitrate=1650.3kbits/s speed=0.0123x    frame=  402 fps=0.8 q=61.0 size=    1253kB time=00:00:06.24 bitrate=1645.0kbits/s speed=0.0122x    frame=  403 fps=0.8 q=61.0 size=    1253kB time=00:00:06.26 bitrate=1639.7kbits/s speed=0.0122x    frame=  404 fps=0.8 q=61.0 size=    1253kB time=00:00:06.28 bitrate=1634.5kbits/s speed=0.0122x    frame=  407 fps=0.8 q=61.0 size=    1253kB time=00:00:06.34 bitrate=1619.1kbits/s speed=0.0123x    frame=  408 fps=0.8 q=61.0 size=    1253kB time=00:00:06.36 bitrate=1614.0kbits/s speed=0.0122x    frame=  409 fps=0.8 q=61.0 size=    1253kB time=00:00:06.38 bitrate=1608.9kbits/s speed=0.0122x    frame=  412 fps=0.8 q=61.0 size=    1253kB time=00:00:06.44 bitrate=1593.9kbits/s speed=0.0123x    frame=  413 fps=0.8 q=61.0 size=    1253kB time=00:00:06.46 bitrate=1589.0kbits/s speed=0.0123x    frame=  414 fps=0.8 q=61.0 size=    1253kB time=00:00:06.48 bitrate=1584.1kbits/s speed=0.0122x    frame=  415 fps=0.8 q=61.0 size=    1253kB time=00:00:06.50 bitrate=1579.2kbits/s speed=0.0122x    frame=  417 fps=0.8 q=61.0 size=    1253kB time=00:00:06.54 bitrate=1569.6kbits/s speed=0.0122x    frame=  418 fps=0.8 q=61.0 size=    1253kB time=00:00:06.56 bitrate=1564.8kbits/s speed=0.0122x    frame=  419 fps=0.8 q=61.0 size=    1253kB time=00:00:06.58 bitrate=1560.0kbits/s speed=0.0122x    frame=  420 fps=0.8 q=61.0 size=    1253kB time=00:00:06.60 bitrate=1555.3kbits/s speed=0.0122x    frame=  421 fps=0.8 q=61.0 size=    1253kB time=00:00:06.62 bitrate=1550.6kbits/s speed=0.0122x    frame=  422 fps=0.8 q=61.0 size=    1253kB time=00:00:06.64 bitrate=1545.9kbits/s speed=0.0122x    frame=  423 fps=0.8 q=61.0 size=    1253kB time=00:00:06.66 bitrate=1541.3kbits/s speed=0.0122x    frame=  426 fps=0.8 q=61.0 size=    1253kB time=00:00:06.72 bitrate=1527.5kbits/s speed=0.0122x    frame=  427 fps=0.8 q=61.0 size=    1253kB time=00:00:06.74 bitrate=1523.0kbits/s speed=0.0122x    frame=  428 fps=0.8 q=61.0 size=    1253kB time=00:00:06.76 bitrate=1518.5kbits/s speed=0.0122x    frame=  430 fps=0.8 q=62.0 size=    1253kB time=00:00:06.80 bitrate=1509.6kbits/s speed=0.0122x    frame=  431 fps=0.8 q=62.0 size=    1253kB time=00:00:06.82 bitrate=1505.1kbits/s speed=0.0122x    frame=  432 fps=0.8 q=62.0 size=    1253kB time=00:00:06.84 bitrate=1500.7kbits/s speed=0.0122x    frame=  433 fps=0.8 q=62.0 size=    1253kB time=00:00:06.86 bitrate=1496.4kbits/s speed=0.0122x    frame=  435 fps=0.8 q=61.0 size=    1253kB time=00:00:06.90 bitrate=1487.7kbits/s speed=0.0123x    frame=  436 fps=0.8 q=62.0 size=    1253kB time=00:00:06.92 bitrate=1483.4kbits/s speed=0.0122x    frame=  437 fps=0.8 q=61.0 size=    1253kB time=00:00:06.94 bitrate=1479.1kbits/s speed=0.0122x    frame=  438 fps=0.8 q=61.0 size=    1253kB time=00:00:06.96 bitrate=1474.9kbits/s speed=0.0122x    frame=  439 fps=0.8 q=61.0 size=    1253kB time=00:00:06.98 bitrate=1470.6kbits/s speed=0.0122x    frame=  440 fps=0.8 q=61.0 size=    1253kB time=00:00:07.00 bitrate=1466.4kbits/s speed=0.0122x    frame=  441 fps=0.8 q=61.0 size=    1253kB time=00:00:07.02 bitrate=1462.3kbits/s speed=0.0122x    frame=  442 fps=0.8 q=61.0 size=    1253kB time=00:00:07.04 bitrate=1458.1kbits/s speed=0.0122x    frame=  443 fps=0.8 q=61.0 size=    1253kB time=00:00:07.06 bitrate=1454.0kbits/s speed=0.0122x    frame=  445 fps=0.8 q=61.0 size=    1253kB time=00:00:07.10 bitrate=1445.8kbits/s speed=0.0122x    frame=  446 fps=0.8 q=61.0 size=    1253kB time=00:00:07.12 bitrate=1441.7kbits/s speed=0.0122x    frame=  447 fps=0.8 q=61.0 size=    1253kB time=00:00:07.14 bitrate=1437.7kbits/s speed=0.0122x    frame=  449 fps=0.8 q=62.0 size=    1253kB time=00:00:07.18 bitrate=1429.7kbits/s speed=0.0121x    frame=  450 fps=0.8 q=62.0 size=    1253kB time=00:00:07.20 bitrate=1425.7kbits/s speed=0.0122x    frame=  451 fps=0.8 q=61.0 size=    1253kB time=00:00:07.22 bitrate=1421.8kbits/s speed=0.0122x    frame=  453 fps=0.8 q=61.0 size=    1253kB time=00:00:07.26 bitrate=1413.9kbits/s speed=0.0122x    frame=  455 fps=0.8 q=62.0 size=    1253kB time=00:00:07.30 bitrate=1406.2kbits/s speed=0.0121x    frame=  456 fps=0.8 q=62.0 size=    1253kB time=00:00:07.32 bitrate=1402.3kbits/s speed=0.0121x    frame=  457 fps=0.8 q=61.0 size=    1253kB time=00:00:07.34 bitrate=1398.5kbits/s speed=0.0122x    frame=  459 fps=0.8 q=62.0 size=    1253kB time=00:00:07.38 bitrate=1390.9kbits/s speed=0.0122x    frame=  460 fps=0.8 q=61.0 size=    1253kB time=00:00:07.40 bitrate=1387.2kbits/s speed=0.0122x    frame=  461 fps=0.8 q=61.0 size=    1253kB time=00:00:07.42 bitrate=1383.4kbits/s speed=0.0121x    frame=  462 fps=0.8 q=62.0 size=    1253kB time=00:00:07.44 bitrate=1379.7kbits/s speed=0.0121x    frame=  464 fps=0.8 q=61.0 size=    1253kB time=00:00:07.48 bitrate=1372.3kbits/s speed=0.0122x    frame=  465 fps=0.8 q=62.0 size=    1253kB time=00:00:07.50 bitrate=1368.7kbits/s speed=0.0121x    frame=  466 fps=0.8 q=61.0 size=    1253kB time=00:00:07.52 bitrate=1365.0kbits/s speed=0.0121x    frame=  467 fps=0.8 q=62.0 size=    1253kB time=00:00:07.54 bitrate=1361.4kbits/s speed=0.0121x    frame=  468 fps=0.8 q=61.0 size=    1253kB time=00:00:07.56 bitrate=1357.8kbits/s speed=0.0121x    frame=  469 fps=0.7 q=61.0 size=    1253kB time=00:00:07.58 bitrate=1354.2kbits/s speed=0.0121x    frame=  470 fps=0.7 q=62.0 size=    1253kB time=00:00:07.60 bitrate=1350.7kbits/s speed=0.0121x    frame=  471 fps=0.8 q=62.0 size=    1253kB time=00:00:07.62 bitrate=1347.1kbits/s speed=0.0121x    frame=  472 fps=0.8 q=62.0 size=    1253kB time=00:00:07.64 bitrate=1343.6kbits/s speed=0.0122x    frame=  473 fps=0.7 q=62.0 size=    1253kB time=00:00:07.66 bitrate=1340.1kbits/s speed=0.0121x    frame=  474 fps=0.7 q=62.0 size=    1253kB time=00:00:07.68 bitrate=1336.6kbits/s speed=0.0121x    frame=  475 fps=0.7 q=62.0 size=    1253kB time=00:00:07.70 bitrate=1333.1kbits/s speed=0.0121x    frame=  476 fps=0.7 q=62.0 size=    1253kB time=00:00:07.72 bitrate=1329.7kbits/s speed=0.0121x    frame=  477 fps=0.7 q=62.0 size=    1253kB time=00:00:07.74 bitrate=1326.2kbits/s speed=0.0121x    frame=  478 fps=0.7 q=62.0 size=    1253kB time=00:00:07.76 bitrate=1322.8kbits/s speed=0.0121x    frame=  479 fps=0.7 q=62.0 size=    1253kB time=00:00:07.78 bitrate=1319.4kbits/s speed=0.0121x    frame=  480 fps=0.7 q=62.0 size=    1253kB time=00:00:07.80 bitrate=1316.0kbits/s speed=0.0121x    frame=  481 fps=0.7 q=62.0 size=    1253kB time=00:00:07.82 bitrate=1312.7kbits/s speed=0.0121x    frame=  482 fps=0.7 q=62.0 size=    1253kB time=00:00:07.84 bitrate=1309.3kbits/s speed=0.0121x    frame=  483 fps=0.7 q=62.0 size=    1253kB time=00:00:07.86 bitrate=1306.0kbits/s speed=0.0121x    frame=  484 fps=0.7 q=62.0 size=    1253kB time=00:00:07.88 bitrate=1302.7kbits/s speed=0.0121x    frame=  485 fps=0.7 q=62.0 size=    1253kB time=00:00:07.90 bitrate=1299.4kbits/s speed=0.0121x    frame=  487 fps=0.7 q=62.0 size=    1253kB time=00:00:07.94 bitrate=1292.8kbits/s speed=0.0121x    frame=  488 fps=0.7 q=62.0 size=    1253kB time=00:00:07.96 bitrate=1289.6kbits/s speed=0.0121x    frame=  489 fps=0.7 q=62.0 size=    1253kB time=00:00:07.98 bitrate=1286.4kbits/s speed=0.0121x    frame=  490 fps=0.7 q=62.0 size=    1253kB time=00:00:08.00 bitrate=1283.1kbits/s speed=0.0121x    frame=  491 fps=0.7 q=62.0 size=    1253kB time=00:00:08.02 bitrate=1279.9kbits/s speed=0.0121x    frame=  492 fps=0.7 q=62.0 size=    1253kB time=00:00:08.04 bitrate=1276.8kbits/s speed=0.0121x    frame=  494 fps=0.7 q=62.0 size=    1253kB time=00:00:08.08 bitrate=1270.4kbits/s speed=0.0121x    frame=  495 fps=0.7 q=62.0 size=    1253kB time=00:00:08.10 bitrate=1267.3kbits/s speed=0.0121x    frame=  496 fps=0.7 q=62.0 size=    1253kB time=00:00:08.12 bitrate=1264.2kbits/s speed=0.0121x    frame=  497 fps=0.7 q=62.0 size=    1253kB time=00:00:08.14 bitrate=1261.1kbits/s speed=0.0121x    frame=  498 fps=0.7 q=62.0 size=    1253kB time=00:00:08.16 bitrate=1258.0kbits/s speed=0.0121x    frame=  499 fps=0.7 q=62.0 size=    1253kB time=00:00:08.18 bitrate=1254.9kbits/s speed=0.0121x    frame=  500 fps=0.7 q=62.0 size=    1253kB time=00:00:08.20 bitrate=1251.9kbits/s speed=0.0121x    frame=  500 fps=0.6 q=-1.0 Lsize=    2573kB time=00:00:09.94 bitrate=2120.3kbits/s speed=0.0122x    
video:2569kB audio:0kB subtitle:0kB other streams:0kB global headers:0kB muxing overhead: 0.165984%
bench: utime=3137.532s
bench: maxrss=6081480kB
[libx264 @ 0x417d1c0] frame I:2     Avg QP:47.99  size: 74630
[libx264 @ 0x417d1c0] frame P:108   Avg QP:50.97  size: 15766
[libx264 @ 0x417d1c0] frame B:390   Avg QP:50.95  size:  1994
[libx264 @ 0x417d1c0] consecutive B-frames:  0.6%  0.4%  3.6% 32.8% 41.0% 21.6%  0.0%  0.0%  0.0%  0.0%  0.0%  0.0%  0.0%  0.0%  0.0%  0.0%  0.0%
[libx264 @ 0x417d1c0] mb I  I16..4: 47.7% 41.2% 11.0%
[libx264 @ 0x417d1c0] mb P  I16..4:  1.9%  2.4% 21.3%  P16..4: 11.4%  3.5%  8.1%  0.3%  0.0%    skip:51.1%
[libx264 @ 0x417d1c0] mb B  I16..4:  0.0%  0.0%  0.0%  B16..8:  8.2%  0.1%  0.0%  direct: 0.0%  skip:91.7%  L0:20.1% L1:79.9% BI: 0.1%
[libx264 @ 0x417d1c0] final ratefactor: 53.77
[libx264 @ 0x417d1c0] 8x8 transform intra:11.6% inter:69.4%
[libx264 @ 0x417d1c0] direct mvs  spatial:99.2% temporal:0.8%
[libx264 @ 0x417d1c0] coded y,uvDC,uvAC intra: 2.3% 13.9% 0.4% inter: 0.0% 1.0% 0.0%
[libx264 @ 0x417d1c0] i16 v,h,dc,p: 36% 10%  1% 53%
[libx264 @ 0x417d1c0] i8 v,h,dc,ddl,ddr,vr,hd,vl,hu:  1%  0% 81%  3%  4%  2%  3%  2%  3%
[libx264 @ 0x417d1c0] i4 v,h,dc,ddl,ddr,vr,hd,vl,hu:  0%  0% 99%  0%  0%  0%  0%  0%  0%
[libx264 @ 0x417d1c0] i8c dc,h,v,p: 35% 31% 18% 15%
[libx264 @ 0x417d1c0] Weighted P-Frames: Y:0.0% UV:0.0%
[libx264 @ 0x417d1c0] ref P L0: 58.0%  0.1%  9.9%  5.6%  3.3%  5.0%  3.7%  2.1%  1.4%  2.1%  1.3%  2.0%  1.2%  1.8%  1.5%  1.1%
[libx264 @ 0x417d1c0] ref B L0: 85.8%  3.3%  3.1%  1.0%  1.3%  0.8%  1.1%  0.3%  0.6%  0.4%  0.5%  0.4%  0.5%  0.3%  0.4%
[libx264 @ 0x417d1c0] ref B L1: 98.1%  1.9%
[libx264 @ 0x417d1c0] kb/s:2103.74
